HIERARCHY
ROOT Hips
{
	OFFSET -0.001795 -0.223333 0.028219
	CHANNELS 6 Xposition Yposition Zposition Zrotation Yrotation Xrotation 
	JOINT LeftUpLeg
	{
		OFFSET 0.069520 -0.091406 -0.006815
		CHANNELS 3 Zrotation Yrotation Xrotation
		JOINT LeftLeg
		{
			OFFSET 0.034277 -0.375199 -0.004496
			CHANNELS 3 Zrotation Yrotation Xrotation
			JOINT LeftFoot
			{
				OFFSET -0.013596 -0.397961 -0.043693
				CHANNELS 3 Zrotation Yrotation Xrotation
				JOINT LeftToe
				{
					OFFSET 0.026358 -0.055791 0.119288
					CHANNELS 3 Zrotation Yrotation Xrotation
					End Site
					{
						OFFSET 0.000000 0.000000 0.000000
					}
				}
			}
		}
	}
	JOINT RightUpLeg
	{
		OFFSET -0.067670 -0.090522 -0.004320
		CHANNELS 3 Zrotation Yrotation Xrotation
		JOINT RightLeg
		{
			OFFSET -0.038290 -0.382569 -0.008850
			CHANNELS 3 Zrotation Yrotation Xrotation
			JOINT RightFoot
			{
				OFFSET 0.015774 -0.398415 -0.042312
				CHANNELS 3 Zrotation Yrotation Xrotation
				JOINT RightToe
				{
					OFFSET -0.025372 -0.048144 0.123348
					CHANNELS 3 Zrotation Yrotation Xrotation
					End Site
					{
						OFFSET 0.000000 0.000000 0.000000
					}
				}
			}
		}
	}
	JOINT Spine
	{
		OFFSET -0.002533 0.108963 -0.026696
		CHANNELS 3 Zrotation Yrotation Xrotation
		JOINT Spine1
		{
			OFFSET 0.005487 0.135180 0.001092
			CHANNELS 3 Zrotation Yrotation Xrotation
			JOINT Spine2
			{
				OFFSET 0.001457 0.052922 0.025425
				CHANNELS 3 Zrotation Yrotation Xrotation
				JOINT Neck
				{
					OFFSET -0.002778 0.213870 -0.042857
					CHANNELS 3 Zrotation Yrotation Xrotation
					JOINT Head
					{
						OFFSET 0.005152 0.064970 0.051349
						CHANNELS 3 Zrotation Yrotation Xrotation
						End Site
						{
							OFFSET 0.000000 0.000000 0.000000
						}
					}
				}
				JOINT LeftShoulder
				{
					OFFSET 0.078845 0.121749 -0.034090
					CHANNELS 3 Zrotation Yrotation Xrotation
					JOINT LeftArm
					{
						OFFSET 0.090977 0.030469 -0.008868
						CHANNELS 3 Zrotation Yrotation Xrotation
						JOINT LeftForeArm
						{
							OFFSET 0.259612 -0.012772 -0.027456
							CHANNELS 3 Zrotation Yrotation Xrotation
							JOINT LeftHand
							{
								OFFSET 0.249234 0.008986 -0.001171
								CHANNELS 3 Zrotation Yrotation Xrotation
								End Site
								{
									OFFSET 0.000000 0.000000 0.000000
								}
							}
						}
					}
				}
				JOINT RightShoulder
				{
					OFFSET -0.081759 0.118833 -0.038615
					CHANNELS 3 Zrotation Yrotation Xrotation
					JOINT RightArm
					{
						OFFSET -0.096012 0.032551 -0.009143
						CHANNELS 3 Zrotation Yrotation Xrotation
						JOINT RightForeArm
						{
							OFFSET -0.253742 -0.013329 -0.021401
							CHANNELS 3 Zrotation Yrotation Xrotation
							JOINT RightHand
							{
								OFFSET -0.255298 0.007772 -0.005559
								CHANNELS 3 Zrotation Yrotation Xrotation
								End Site
								{
									OFFSET 0.000000 0.000000 0.000000
								}
							}
						}
					}
				}
			}
		}
	}
}
MOTION
Frames: 10
Frame Time: 0.050000
0.000000 0.948965 0.000000 0.910282 5.272918 4.979966 9.672432 -0.586933 -17.807358 -7.368018 1.113882 20.982633 4.776533 11.909678 7.319847 0.000000 0.000000 0.000000 -0.434390 1.424465 -15.516085 2.224543 -0.116025 14.698600 -3.822046 -9.865135 0.891150 0.000000 0.000000 0.000000 4.842898 -0.738263 7.048713 -1.553307 0.816390 -3.613856 -3.440189 1.068571 14.060145 4.292663 -2.015195 -9.879237 0.000000 0.000000 0.000000 -10.219530 -1.516074 -0.660674 -53.215366 10.664321 -11.822654 -73.597798 -44.953723 36.030729 0.000000 0.000000 0.000000 3.948559 -8.984507 -3.676058 54.116603 -31.527315 -18.903201 93.440201 35.161542 40.078688 0.000000 0.000000 0.000000 
0.005177 0.949757 0.006023 0.794995 5.116534 6.114646 11.724484 -0.382115 -18.976789 -6.484062 0.880694 19.722872 7.042155 16.226452 10.752711 0.000000 0.000000 0.000000 -0.551519 1.442258 -15.819770 1.940332 -0.038906 14.819181 -3.180929 -8.175677 0.330172 0.000000 0.000000 0.000000 5.582349 -0.717167 5.850658 -1.229179 0.657773 -3.164432 -3.927875 0.758670 13.773851 1.899894 0.078789 -13.441680 0.000000 0.000000 0.000000 -10.379014 1.462243 -1.958204 -51.906716 11.070092 -11.581177 -79.206114 -43.586203 38.283137 0.000000 0.000000 0.000000 1.955422 -7.904688 -3.051796 53.839816 -33.248915 -19.465102 98.936692 33.097566 40.964134 0.000000 0.000000 0.000000 
0.013196 0.950327 0.011604 1.254791 4.246786 5.139511 13.151172 -0.143037 -17.784491 -4.376354 0.387877 16.222580 3.982345 11.731533 13.072910 0.000000 0.000000 0.000000 -0.178037 1.465851 -15.470807 0.702070 0.330156 16.573374 -2.158046 -5.749914 0.787146 0.000000 0.000000 0.000000 5.400432 -0.878240 8.011418 -1.233000 0.693498 -4.651185 -4.370969 1.680133 15.184514 2.601843 -0.499570 -12.062269 0.000000 0.000000 0.000000 -10.180959 2.122173 -2.265794 -51.628972 11.722822 -11.912834 -83.177858 -45.289753 42.335876 0.000000 0.000000 0.000000 0.455427 -8.542709 -3.141479 55.133246 -31.724982 -19.314778 97.989879 33.061701 40.818350 0.000000 0.000000 0.000000 
0.024479 0.951187 0.017283 1.556964 3.761705 5.694742 14.421098 0.007990 -17.545951 -2.986179 0.153388 11.520504 2.253022 9.544883 15.405475 0.000000 0.000000 0.000000 -0.933872 1.477413 -16.503288 0.689005 0.376165 17.866627 -1.727653 -4.810049 1.154312 0.000000 0.000000 0.000000 5.096939 -0.861048 8.086097 -1.203909 0.689033 -5.312280 -4.293946 1.990915 15.621823 2.616465 -0.438894 -12.591955 0.000000 0.000000 0.000000 -10.336377 3.819235 -3.048233 -51.164151 12.094460 -11.945701 -87.811399 -44.395324 44.588910 0.000000 0.000000 0.000000 -0.514392 -9.328438 -3.331632 53.191907 -29.546672 -17.586146 98.599116 31.387485 39.300356 0.000000 0.000000 0.000000 
0.039781 0.950451 0.022811 1.811967 3.130948 5.052784 15.158662 0.136272 -16.948650 -1.046886 -0.117623 7.980184 -0.313243 5.837202 16.299735 0.000000 0.000000 0.000000 -2.031362 1.292282 -15.585653 0.458103 0.456855 17.510505 -1.427004 -4.097161 1.209581 0.000000 0.000000 0.000000 4.427193 -0.889247 9.411462 -1.135402 0.650170 -5.086577 -4.083481 2.038032 15.895728 3.370398 -0.870299 -13.622355 0.000000 0.000000 0.000000 -10.009892 3.815216 -2.938793 -52.363174 11.750711 -12.174276 -95.675068 -47.028676 53.668301 0.000000 0.000000 0.000000 -0.697006 -8.027222 -2.834126 54.141362 -26.442175 -16.762228 99.665315 31.962681 40.787500 0.000000 0.000000 0.000000 
0.059255 0.948204 0.028349 1.999530 2.726046 4.542500 15.406353 0.221441 -17.264912 0.513893 -0.298299 5.963149 -3.359535 1.221443 16.558496 0.000000 0.000000 0.000000 -3.320665 1.105875 -14.794196 -0.485276 0.732679 17.704495 -0.725419 -1.962119 0.243670 0.000000 0.000000 0.000000 3.376034 -0.867673 10.792546 -1.209749 0.669425 -4.667685 -3.441046 2.772525 15.387441 4.622007 -1.556950 -14.345314 0.000000 0.000000 0.000000 -10.393274 3.542235 -2.954328 -51.297367 11.013843 -11.532838 -104.536325 -48.628423 62.930022 0.000000 0.000000 0.000000 0.208563 -7.014755 -2.550901 52.919035 -24.311733 -15.403613 100.954886 33.377481 43.750977 0.000000 0.000000 0.000000 
0.083443 0.945615 0.034300 1.096923 2.702107 4.957702 16.245689 0.352545 -18.322328 0.276842 -0.247699 5.641926 -4.821422 -0.551204 17.746270 0.000000 0.000000 0.000000 -4.911416 0.957076 -14.941809 0.519260 0.454879 17.508786 -0.479352 -1.066856 -0.351550 0.000000 0.000000 0.000000 3.889762 -0.936613 10.770745 -1.058389 0.588709 -3.989942 -3.463129 3.429886 15.046786 5.636571 -2.204122 -14.046745 0.000000 0.000000 0.000000 -9.809215 2.394947 -2.437787 -51.565371 10.231670 -11.291101 -111.067043 -49.057547 69.487157 0.000000 0.000000 0.000000 1.183292 -6.175676 -2.316231 50.974858 -21.536628 -13.637192 101.100121 35.585567 47.016254 0.000000 0.000000 0.000000 
0.112836 0.942270 0.040756 0.324657 1.672440 4.996461 16.714600 0.506049 -18.594831 -0.436255 -0.142458 5.966595 -5.141243 -1.366895 17.363042 0.000000 0.000000 0.000000 -6.103259 0.876166 -15.211308 0.042996 0.633756 17.864861 0.136181 0.641149 -0.557192 0.000000 0.000000 0.000000 3.943564 -0.920591 10.592481 -1.233236 0.643738 -3.469059 -2.837415 4.435523 14.986695 6.435363 -2.738932 -13.804110 0.000000 0.000000 0.000000 -10.094067 2.214382 -2.460360 -49.821820 9.464409 -10.525759 -117.456755 -51.038707 78.658578 0.000000 0.000000 0.000000 1.928206 -5.340925 -2.039382 48.159110 -18.929478 -11.894293 102.527216 37.213826 50.454805 0.000000 0.000000 0.000000 
0.145985 0.940873 0.047472 -0.354917 0.755798 5.194927 16.056817 0.492528 -18.790271 -0.850108 -0.098582 7.016148 -4.202911 -1.151863 14.750583 0.000000 0.000000 0.000000 -7.267646 0.787508 -15.101889 -0.806199 0.856099 16.977510 1.091653 2.835452 -0.012519 0.000000 0.000000 0.000000 4.261194 -0.934425 10.348426 -1.467117 0.734610 -3.292180 -2.250803 4.513226 14.703680 7.173789 -3.353785 -13.425848 0.000000 0.000000 0.000000 -10.031047 1.296506 -1.989488 -49.809807 7.624282 -9.759965 -119.197181 -54.231998 85.079629 0.000000 0.000000 0.000000 1.877947 -3.894379 -1.488162 45.653009 -16.681088 -10.499559 104.454485 38.767429 53.654585 0.000000 0.000000 0.000000 
0.181472 0.940965 0.053492 -0.735092 -0.328674 5.281357 15.003624 0.458353 -19.573516 -1.629043 0.005067 9.196374 -3.299332 -0.549349 13.007158 0.000000 0.000000 0.000000 -8.830733 0.668077 -14.805789 -1.196145 0.947307 16.123963 1.418749 2.402347 2.136550 0.000000 0.000000 0.000000 4.333104 -0.944841 10.487493 -1.835182 0.886764 -3.409029 -2.076977 4.326497 15.052411 8.051952 -3.864465 -14.462557 0.000000 0.000000 0.000000 -9.954140 -0.602113 -1.031146 -50.091341 4.617458 -8.662211 -120.295550 -58.154776 91.851249 0.000000 0.000000 0.000000 2.194109 -3.294822 -1.285412 43.874064 -13.406989 -9.124083 106.792128 39.888406 56.747375 0.000000 0.000000 0.000000 
